#!OML:ASF F:\VICON\USERDATA\INSTALL\rory3\rory3.ASF
:FULLY-SPECIFIED
:DEGREES
3744
root 0.078601 18.2722 -0.306602 25.1917 10.0939 -3.29096
lowerback 10.1554 -1.29595 1.41862
upperback -2.02766 -1.22011 4.21602
thorax -7.80386 -0.549907 3.88059
lowerneck -1.77395 -1.82938 5.92724
upperneck -3.84105 -2.74647 -8.18639
head -1.13356 -1.38598 -3.70529
rclavicle -2.56432e-014 4.73108e-014
rhumerus -38.3963 4.594 -84.9795
rradius 129.879
rwrist 31.2333
rhand 9.58987 7.25941
rfingers 7.12502
rthumb 34.7372 -19.3576
lclavicle -2.56432e-014 4.73108e-014
lhumerus -36.1784 -11.8567 94.544
lradius 115.937
lwrist -24.3265
lhand -12.6191 15.4906
lfingers 7.12502
lthumb 13.4604 45.0357
rfemur -35.2592 42.4567 -2.55285
rtibia -9.93923e-017
rfoot -53.6036 -49.4538
rtoes 45.0259
lfemur -39.8485 -32.1731 5.80682
ltibia 16.1836
lfoot -5.48491 33.9068
ltoes -1.43513
3745
root 0.0963774 18.2771 -0.287349 24.9747 9.90188 -3.13648
lowerback 10.0062 -1.28466 1.41655
upperback -2.22495 -1.19169 4.36587
thorax -7.9296 -0.529827 4.03986
lowerneck -2.02893 -1.76286 5.90681
upperneck -3.21793 -2.64387 -8.60425
head -0.886104 -1.34117 -3.85159
rclavicle 1.88845e-014 1.86858e-014
rhumerus -38.6899 4.75025 -85.0392
rradius 129.836
rwrist 31.2862
rhand 9.46967 7.37574
rfingers 7.12502
rthumb 34.6232 -19.2675
lclavicle 1.88845e-014 1.86858e-014
lhumerus -36.5588 -11.8731 94.6408
lradius 116.05
lwrist -23.9647
lhand -12.7189 16.2255
lfingers 7.12502
lthumb 13.3641 45.7769
rfemur -34.977 42.7409 -2.67207
rtibia -2.37548e-014
rfoot -53.1283 -50.3232
rtoes 44.0652
lfemur -39.2869 -32.0168 5.14828
ltibia 16.023
lfoot -5.53254 33.6294
ltoes -0.973096
3746
root 0.11861 18.2817 -0.267381 24.7585 9.78211 -2.97578
lowerback 9.78092 -1.2646 1.52342
upperback -2.39013 -1.14298 4.49877
thorax -7.98076 -0.506272 4.11182
lowerneck -2.26099 -1.73106 5.93764
upperneck -2.6546 -2.58725 -9.05083
head -0.666681 -1.32102 -4.01963
rclavicle -9.93923e-015 2.14687e-014
rhumerus -38.9136 4.89907 -85.182
rradius 129.714
rwrist 31.1363
rhand 8.86331 7.09278
rfingers 7.12502
rthumb 34.0474 -19.6804
lclavicle -9.93923e-015 2.14687e-014
lhumerus -36.8033 -11.6339 94.5273
lradius 116.097
lwrist -23.7382
lhand -12.2631 15.6549
lfingers 7.12502
lthumb 13.8035 45.1769
rfemur -34.6262 42.9665 -2.73269
rtibia 5.96354e-015
rfoot -53.279 -50.6462
rtoes 43.6358
lfemur -38.7292 -31.9291 4.50899
ltibia 15.8421
lfoot -5.54173 33.3643
ltoes -0.528319
3747
root 0.141241 18.2848 -0.249208 24.5748 9.60978 -2.846
lowerback 9.51012 -1.20637 1.61617
upperback -2.52292 -1.04688 4.6551
thorax -7.97289 -0.458997 4.20652
lowerneck -2.6607 -1.71719 5.88802
upperneck -1.98602 -2.54759 -9.45708
head -0.382138 -1.3159 -4.16171
rclavicle -5.96354e-015 -3.18055e-015
rhumerus -39.0558 5.1273 -85.3114
rradius 129.649
rwrist 31.0905
rhand 8.26557 6.464
rfingers 7.12502
rthumb 33.4795 -20.4338
lclavicle -5.96354e-015 -3.18055e-015
lhumerus -36.8753 -11.5567 94.4818
lradius 116.146
lwrist -23.2902
lhand -12.2513 15.6141
lfingers 7.12502
lthumb 13.8148 45.1354
rfemur -34.3816 43.2268 -2.8562
rtibia -1.33186e-014
rfoot -53.3903 -51.0156
rtoes 43.2534
lfemur -38.161 -31.7752 3.87919
ltibia 15.6357
lfoot -5.30748 33.1284
ltoes -0.824692
3748
root 0.162737 18.2892 -0.233037 24.4119 9.41274 -2.59596
lowerback 9.24822 -1.15663 1.55107
upperback -2.62159 -0.983332 4.81475
thorax -7.92861 -0.420289 4.39903
lowerneck -3.10462 -1.69818 5.79727
upperneck -1.34867 -2.49757 -9.88251
head -0.0976842 -1.30896 -4.30585
rclavicle -4.77083e-015 4.69132e-014
rhumerus -39.1335 5.17262 -85.1973
rradius 129.707
rwrist 31.4242
rhand 8.42558 6.363
rfingers 7.12502
rthumb 33.6316 -20.5018
lclavicle -4.77083e-015 4.69132e-014
lhumerus -36.9022 -11.7699 94.6222
lradius 116.072
lwrist -22.6854
lhand -12.938 16.4033
lfingers 7.12502
lthumb 13.1529 45.9685
rfemur -34.1347 43.4597 -3.09525
rtibia -2.10712e-014
rfoot -52.9444 -51.9287
rtoes 42.1588
lfemur -37.6284 -31.5958 3.12048
ltibia 15.4511
lfoot -5.05841 32.795
ltoes -1.36136
3749
root 0.185322 18.293 -0.216494 24.246 9.2754 -2.34249
lowerback 8.99581 -1.11347 1.55122
upperback -2.73411 -0.920886 4.95276
thorax -7.90647 -0.385451 4.53279
lowerneck -3.39416 -1.67607 5.82473
upperneck -0.816424 -2.44322 -10.3835
head 0.124317 -1.29816 -4.50112
rclavicle -3.97569e-016 3.33958e-014
rhumerus -39.2431 5.02741 -84.9608
rradius 129.807
rwrist 31.7388
rhand 8.88634 6.44084
rfingers 7.12502
rthumb 34.0693 -20.3275
lclavicle -3.97569e-016 3.33958e-014
lhumerus -36.9919 -11.78 94.6448
lradius 116.046
lwrist -22.3432
lhand -13.2138 16.3504
lfingers 7.12502
lthumb 12.8871 45.9325
rfemur -33.837 43.6438 -3.28811
rtibia -5.96354e-015
rfoot -52.963 -52.308
rtoes 41.6383
lfemur -37.1434 -31.4277 2.38405
ltibia 15.3002
lfoot -4.52424 32.4201
ltoes -2.28293
3750
root 0.208283 18.2976 -0.1962 23.9048 9.16876 -2.27987
lowerback 8.86384 -1.05771 1.74382
upperback -2.80764 -0.811899 5.12164
thorax -7.91839 -0.336035 4.58666
lowerneck -3.57303 -1.66063 5.84482
upperneck -0.301526 -2.39018 -10.8364
head 0.322821 -1.28659 -4.67816
rclavicle -1.07344e-014 -1.43125e-014
rhumerus -39.3484 4.93621 -84.7728
rradius 129.865
rwrist 31.7683
rhand 9.20561 6.41452
rfingers 7.12502
rthumb 34.3725 -20.2858
lclavicle -1.07344e-014 -1.43125e-014
lhumerus -37.0941 -11.622 94.5306
lradius 116.066
lwrist -22.2525
lhand -13.0196 15.7901
lfingers 7.12502
lthumb 13.0743 45.3603
rfemur -33.3519 43.9501 -3.14846
rtibia 5.56597e-015
rfoot -52.7062 -52.8938
rtoes 40.9548
lfemur -36.4433 -31.3105 1.77109
ltibia 15.1452
lfoot -3.86843 32.1039
ltoes -3.76773
3751
root 0.229515 18.3021 -0.173721 23.4888 9.00432 -2.25528
lowerback 8.77002 -0.968563 1.89977
upperback -2.83101 -0.662625 5.30328
thorax -7.90049 -0.265234 4.66861
lowerneck -3.58841 -1.68005 5.84843
upperneck 0.0404998 -2.38793 -11.2778
head 0.432051 -1.29472 -4.84548
rclavicle -1.23246e-014 5.80451e-014
rhumerus -39.4411 4.88412 -84.687
rradius 129.903
rwrist 31.7433
rhand 9.48782 6.47905
rfingers 7.12502
rthumb 34.6404 -20.1602
lclavicle -1.23246e-014 5.80451e-014
lhumerus -37.1772 -11.6799 94.5352
lradius 116.055
lwrist -22.1234
lhand -13.2949 15.8892
lfingers 7.12502
lthumb 12.809 45.4763
rfemur -32.795 44.3552 -2.9376
rtibia 1.19271e-015
rfoot -52.5848 -53.3161
rtoes 40.4696
lfemur -35.6486 -31.2318 1.17824
ltibia 15.0251
lfoot -3.68375 31.8228
ltoes -4.12179
